<svg xmlns="http://www.w3.org/2000/svg" fill="none" viewBox="0 -1 18 21"><path fill="#000" d="M15.9 7.92a2.5 2.5 0 0 0-.1-.11l-.12-.1-.1-.12-.1-.1-.11-.12-.1-.1-.12-.11a5.83 5.83 0 0 1 1.68 4.01c0 3.6-3.56 6.54-7.95 6.54a8.7 8.7 0 0 1-6.1-2.36l.1.1.1.12.1.1.12.11.1.11.1.11.11.1a8.67 8.67 0 0 0 6.22 2.48c4.38 0 7.95-2.93 7.95-6.53 0-1.53-.65-2.99-1.78-4.13z"/><path fill="#fbf0df" d="M16.3 11.17c0 3.31-3.32 6-7.42 6s-7.42-2.69-7.42-6c0-2.05 1.28-3.86 3.23-4.94 1.95-1.07 3.17-2.17 4.2-2.17 1.01 0 1.89.9 4.19 2.17 1.95 1.08 3.22 2.9 3.22 4.94z"/><path fill="#f6dece" d="M16.3 11.17a4.83 4.83 0 0 0-.17-1.25c-.58 7.24-9.19 7.59-12.57 5.42a8.34 8.34 0 0 0 5.32 1.82c4.1 0 7.42-2.68 7.42-5.99z"/><path fill="#fffefc" d="M6.03 5.84c.94-.59 2.2-1.68 3.44-1.68a1.92 1.92 0 0 0-.59-.1c-.51 0-1.06.27-1.75.68l-.75.47c-.5.31-1.06.67-1.7 1.02-2.01 1.12-3.22 2.97-3.22 4.94v.26c1.29-4.66 3.62-5.01 4.57-5.6Z"/><path fill="#ccbea7" fill-rule="evenodd" d="M8.27 4.61a3.65 3.65 0 0 1-.3 1.49c-.21.47-.51.89-.9 1.22-.05.06 0 .16.07.13.72-.28 1.68-1.14 1.27-2.86-.01-.1-.14-.07-.14.02zm.48 0c.26.43.43.92.49 1.43a3.62 3.62 0 0 1-.15 1.5c-.02.08.07.14.12.08.47-.61.87-1.82-.34-3.13-.06-.05-.16.04-.12.11zm.59-.04a3.54 3.54 0 0 1 1.45 2.56l.01.05c.01.02.03.03.05.03l.05-.01a.07.07 0 0 0 .03-.04c.2-.76.08-2.06-1.52-2.73-.09-.04-.14.08-.07.13zM5.43 6.84a3.56 3.56 0 0 0 2.21-1.96c.04-.08.16-.05.14.04-.36 1.74-1.59 2.1-2.35 2.05-.08 0-.08-.11 0-.13z" clip-rule="evenodd"/><path fill="#000" d="M8.88 17.71c-4.38 0-7.95-2.93-7.95-6.54 0-2.17 1.31-4.2 3.5-5.42.64-.35 1.19-.7 1.67-1l.77-.48a4.04 4.04 0 0 1 2.01-.75c.64 0 1.2.26 1.89.68l.65.4c.53.34 1.12.72 1.9 1.15 2.2 1.22 3.51 3.25 3.51 5.42 0 3.6-3.56 6.54-7.95 6.54zm0-13.65c-.51 0-1.06.27-1.75.68l-.75.47c-.5.31-1.06.67-1.7 1.02-2.01 1.12-3.22 2.97-3.22 4.94 0 3.3 3.33 6 7.42 6 4.1 0 7.42-2.7 7.42-6 0-1.97-1.2-3.82-3.22-4.94-.8-.43-1.43-.84-1.94-1.16l-.63-.4c-.65-.4-1.11-.61-1.63-.61Z"/><path fill="#b71422" d="M10.38 12.76c-.1.4-.32.76-.62 1.03-.23.22-.53.37-.85.4a1.43 1.43 0 0 1-.88-.4c-.3-.27-.51-.63-.6-1.03a.16.16 0 0 1 0-.07.16.16 0 0 1 .04-.06.15.15 0 0 1 .06-.04.15.15 0 0 1 .06 0h2.62a.15.15 0 0 1 .07 0 .15.15 0 0 1 .09.1c0 .02.01.05 0 .07z"/><path fill="#ff6164" d="M8.03 13.8c.24.24.55.38.88.42.33-.04.63-.18.87-.42a2.3 2.3 0 0 0 .21-.23 1.45 1.45 0 0 0-.47-.36 1.42 1.42 0 0 0-.57-.14 1.28 1.28 0 0 0-.6.17 1.32 1.32 0 0 0-.46.43l.14.13z"/><path fill="#000" d="M8.07 13.63a1.14 1.14 0 0 1 .4-.33 1.11 1.11 0 0 1 .49-.12c.31 0 .62.14.84.37a3.42 3.42 0 0 0 .14-.17 1.46 1.46 0 0 0-1-.42 1.32 1.32 0 0 0-.57.14 1.35 1.35 0 0 0-.46.37 2.05 2.05 0 0 0 .16.16z"/><path fill="#000" d="M8.9 14.33a1.55 1.55 0 0 1-.94-.44 2.08 2.08 0 0 1-.66-1.1.27.27 0 0 1 0-.11.26.26 0 0 1 .05-.1.3.3 0 0 1 .11-.09.3.3 0 0 1 .13-.03h2.62a.3.3 0 0 1 .13.03.3.3 0 0 1 .1.08.26.26 0 0 1 .06.1v.12c-.1.43-.33.82-.66 1.1-.25.25-.59.4-.94.44zm-1.3-1.61-.05.01c.09.38.3.71.58.96.2.2.48.34.77.38.3-.04.56-.17.78-.38.28-.25.48-.58.57-.95a.04.04 0 0 0-.04-.02z"/><path fill="#febbd0" d="M12.1 12.9c.7 0 1.25-.34 1.25-.75 0-.42-.56-.75-1.24-.75-.69 0-1.24.33-1.24.75 0 .41.55.75 1.24.75zm-6.4 0c.68 0 1.23-.34 1.23-.75 0-.42-.55-.75-1.24-.75-.68 0-1.24.33-1.24.75 0 .41.56.75 1.24.75z"/><path fill="#000" fill-rule="evenodd" d="M6.28 11.85a1.15 1.15 0 0 0 .64-.2c.2-.14.35-.32.44-.54a1.23 1.23 0 0 0 .06-.7 1.2 1.2 0 0 0-.32-.6 1.16 1.16 0 0 0-.6-.34 1.14 1.14 0 0 0-.67.07c-.21.1-.4.25-.52.44a1.22 1.22 0 0 0-.2.67c0 .32.12.62.34.85.22.22.52.35.83.35zm5.25 0a1.15 1.15 0 0 0 .65-.2c.19-.13.34-.32.43-.54a1.23 1.23 0 0 0 .07-.69 1.2 1.2 0 0 0-.32-.62 1.16 1.16 0 0 0-.6-.33 1.14 1.14 0 0 0-.67.07c-.21.1-.4.24-.53.44a1.22 1.22 0 0 0-.2.67c0 .32.13.62.34.84.22.23.52.36.83.36z" clip-rule="evenodd"/><path fill="#fff" fill-rule="evenodd" d="M5.91 10.72a.43.43 0 0 0 .25-.07.45.45 0 0 0 .16-.2.46.46 0 0 0 .03-.26.45.45 0 0 0-.12-.23.44.44 0 0 0-.23-.13.43.43 0 0 0-.25.03.44.44 0 0 0-.2.16.46.46 0 0 0-.07.25c0 .12.04.24.13.32a.43.43 0 0 0 .3.13zm5.26 0c.08 0 .17-.02.24-.07a.45.45 0 0 0 .16-.2.46.46 0 0 0 .03-.26.45.45 0 0 0-.12-.23.44.44 0 0 0-.23-.13.43.43 0 0 0-.25.03.44.44 0 0 0-.2.16.46.46 0 0 0-.07.25.43.43 0 0 0 .43.45z" clip-rule="evenodd"/><path d="M0 2h18v18H0z"/></svg>
