<svg xmlns="http://www.w3.org/2000/svg" xml:space="preserve" fill-rule="evenodd" stroke-linejoin="round" stroke-miterlimit="2" clip-rule="evenodd" viewBox="0 -1 18 21"><path d="M1.57 14.43a8.14 8.14 0 0 1 2-9.54 8.18 8.18 0 0 1 11.47 11.63 4.23 4.23 0 0 1-3.02 1.32 2.95 2.95 0 0 1-2.81-3.72c.07-.26.25-.77.51-.98a3.12 3.12 0 0 1-.83-.57c-.03-.03-.03-.09 0-.13a.1.1 0 0 1 .12-.03c.26.1.59.18.93.24.45.07 1.01.17 1.58.2 1.39.06 2.83-.56 3.28-1.8.45-1.23.28-2.45-1.33-3.19-1.61-.73-2.36-1.6-3.66-2.13-.85-.35-1.8-.14-2.77.4-2.61 1.44-4.96 6.01-3.88 10.24a.13.13 0 0 1-.21.13 8.22 8.22 0 0 1-1.38-2.07z"/><path fill="#fff" d="M9.42 2.01A9 9 0 1 1 8.57 20 9 9 0 0 1 9.42 2zm2.1 10.84c-.57-.03-1.13-.13-1.58-.2a5.96 5.96 0 0 1-.93-.24.1.1 0 0 0-.12.04c-.03.03-.03.09 0 .12.12.14.52.43.83.57-.26.21-.44.72-.52.97a2.95 2.95 0 0 0 2.81 3.72c.97.03 2.13-.39 3.04-1.32a8.19 8.19 0 1 0-12.1-.01.13.13 0 0 0 .21-.13c-1.08-4.23 1.27-8.8 3.88-10.24.97-.54 1.92-.75 2.77-.4 1.3.52 2.05 1.4 3.66 2.13 1.6.74 1.78 1.96 1.33 3.2-.45 1.23-1.9 1.85-3.28 1.79zM8.7 6.3c-.52.04-.87.7-.92 1.11-.04.42.17 1.12.85 1.1.81-.01 1.05-.7.97-1.37-.07-.5-.46-.88-.9-.84z"/><path d="M8.7 6.3c.45-.04.83.34.9.84.09.67-.16 1.36-.96 1.37-.69.02-.9-.68-.85-1.1.04-.42.39-1.07.92-1.11z"/></svg>
