<svg xmlns="http://www.w3.org/2000/svg" xmlns:xlink="http://www.w3.org/1999/xlink" viewBox="0 -1 18 21"><defs><linearGradient id="c" x1="186.34" x2="76.03" y1="47.79" y2="245.27" gradientTransform="scale(.93681174 1.0674503)" gradientUnits="userSpaceOnUse"><stop offset="0%" stop-color="#41873F"/><stop offset="32.88%" stop-color="#418B3D"/><stop offset="63.52%" stop-color="#419637"/><stop offset="93.19%" stop-color="#3FA92D"/><stop offset="100%" stop-color="#3FAE2A"/></linearGradient><linearGradient id="d" x1="119.42" x2="432.34" y1="149.31" y2="-48.96" gradientTransform="scale(.92657509 1.0792433)" gradientUnits="userSpaceOnUse"><stop offset="13.76%" stop-color="#41873F"/><stop offset="40.32%" stop-color="#54A044"/><stop offset="71.36%" stop-color="#66B848"/><stop offset="90.81%" stop-color="#6CC04A"/></linearGradient><linearGradient id="f" x1="-4.49" x2="281" y1="134.8" y2="134.8" gradientTransform="scale(.92431194 1.0818858)" gradientUnits="userSpaceOnUse"><stop offset="9.19%" stop-color="#6CC04A"/><stop offset="28.64%" stop-color="#66B848"/><stop offset="59.68%" stop-color="#54A044"/><stop offset="86.24%" stop-color="#41873F"/></linearGradient><path id="a" d="M134.92 1.83a14 14 0 0 0-13.84 0L6.78 67.8A13.56 13.56 0 0 0 0 79.75v132.2c0 4.89 2.71 9.5 6.79 11.95l114.29 65.97a13.99 13.99 0 0 0 13.84 0l114.3-65.97a13.56 13.56 0 0 0 6.78-11.95V79.75c0-4.9-2.71-9.5-6.79-11.95z"/><path id="b" d="M134.92 1.83a14 14 0 0 0-13.84 0L6.78 67.8A13.56 13.56 0 0 0 0 79.75v132.2c0 4.89 2.71 9.5 6.79 11.95l114.29 65.97a13.99 13.99 0 0 0 13.84 0l114.3-65.97a13.56 13.56 0 0 0 6.78-11.95V79.75c0-4.9-2.71-9.5-6.79-11.95z"/></defs><mask id="e" fill="#fff"><use xlink:href="#a"/></mask><mask id="g" fill="#fff"><use xlink:href="#b"/></mask><path fill="url(#c)" d="M134.92 1.83a14 14 0 0 0-13.84 0L6.78 67.8A13.56 13.56 0 0 0 0 79.75v132.2c0 4.89 2.71 9.5 6.79 11.95l114.29 65.97a13.99 13.99 0 0 0 13.84 0l114.3-65.97a13.56 13.56 0 0 0 6.78-11.95V79.75c0-4.9-2.71-9.5-6.79-11.95z" transform="matrix(.06164384 0 0 .06164378 1.11 2)"/><path fill="url(#d)" d="M249.49 67.8 134.65 1.83a18.95 18.95 0 0 0-3.53-1.35L2.44 220.9a14.33 14.33 0 0 0 3.8 3.26l114.84 65.97a13.24 13.24 0 0 0 10.59 1.36L252.47 70.5c-.81-1.08-1.9-1.9-2.99-2.7z" mask="url(#e)" transform="matrix(.06164384 0 0 .06164378 1.11 2)"/><path fill="url(#f)" d="M249.76 223.9c3.25-1.9 5.7-5.16 6.78-8.69L130.58.21c-3.26-.55-6.79-.28-9.77 1.62L6.79 67.53l122.97 224.24c1.63-.27 3.53-.82 5.16-1.63l114.84-66.24z" mask="url(#g)" transform="matrix(.06164384 0 0 .06164378 1.11 2)"/><path fill="none" d="M0 2h18v18H0z"/></svg>
